<svg width="856" height="146" viewBox="0 0 856 146" fill="none" xmlns="http://www.w3.org/2000/svg">
<path d="M50.0002 126C52.2094 126 54.0002 124.209 54.0002 122C54.0002 119.791 52.2094 118 50.0002 118C47.7911 118 46.0002 119.791 46.0002 122C46.0002 124.209 47.7911 126 50.0002 126Z" fill="#1A4A2F" fill-opacity="0.4"/>
<path d="M86.0002 99C88.7617 99 91.0002 96.7614 91.0002 94C91.0002 91.2386 88.7617 89 86.0002 89C83.2388 89 81.0002 91.2386 81.0002 94C81.0002 96.7614 83.2388 99 86.0002 99Z" fill="#1A4A2F" fill-opacity="0.6"/>
<path d="M162 44C174.151 44 184 34.1503 184 22C184 9.84974 174.151 0 162 0C149.85 0 140 9.84974 140 22C140 34.1503 149.85 44 162 44Z" fill="#C2E85A" fill-opacity="0.35"/>
<path d="M162 34C168.628 34 174 28.6274 174 22C174 15.3726 168.628 10 162 10C155.373 10 150 15.3726 150 22C150 28.6274 155.373 34 162 34Z" fill="#1A4A2F"/>
<path d="M162 28C165.314 28 168 25.3137 168 22C168 18.6863 165.314 16 162 16C158.687 16 156 18.6863 156 22C156 25.3137 158.687 28 162 28Z" fill="#C2E85A"/>
<path d="M6.00024 138C46.0002 135.333 76.0002 115.333 96.0002 78C116 40.6667 138 22 162 22" stroke="url(#paint0_linear_57_7)" stroke-width="12" stroke-linecap="round"/>
<path d="M245.69 113.5L227.65 53.22H245.8L262.74 113.5H245.69ZM251.19 113.5V98.87H268.9V113.5H251.19ZM257.68 113.5L272.31 53.22H289.25L273.63 113.5H257.68ZM325.879 115.59C320.745 115.59 316.199 114.71 312.239 112.95C308.352 111.19 305.089 108.843 302.449 105.91C299.882 102.903 297.902 99.5667 296.509 95.9C295.189 92.16 294.529 88.3467 294.529 84.46V82.26C294.529 78.2267 295.189 74.3767 296.509 70.71C297.902 66.97 299.882 63.6333 302.449 60.7C305.015 57.7667 308.205 55.4567 312.019 53.77C315.905 52.01 320.305 51.13 325.219 51.13C331.672 51.13 337.099 52.5967 341.499 55.53C345.972 58.39 349.382 62.1667 351.729 66.86C354.075 71.48 355.249 76.54 355.249 82.04V87.98H301.899V77.97H344.579L338.859 82.59C338.859 78.9967 338.345 75.9167 337.319 73.35C336.292 70.7833 334.752 68.84 332.699 67.52C330.719 66.1267 328.225 65.43 325.219 65.43C322.139 65.43 319.535 66.1267 317.409 67.52C315.282 68.9133 313.669 70.9667 312.569 73.68C311.469 76.32 310.919 79.5833 310.919 83.47C310.919 87.0633 311.432 90.2167 312.459 92.93C313.485 95.57 315.099 97.6233 317.299 99.09C319.499 100.557 322.359 101.29 325.879 101.29C329.105 101.29 331.745 100.667 333.799 99.42C335.852 98.1733 337.245 96.6333 337.979 94.8H354.149C353.269 98.8333 351.545 102.427 348.979 105.58C346.412 108.733 343.185 111.19 339.299 112.95C335.412 114.71 330.939 115.59 325.879 115.59ZM366.911 113.5V53.22H380.881V79.07H379.891C379.891 72.91 380.661 67.7767 382.201 63.67C383.814 59.5633 386.234 56.4833 389.461 54.43C392.688 52.3767 396.611 51.35 401.231 51.35H402.001C409.041 51.35 414.394 53.66 418.061 58.28C421.801 62.8267 423.671 69.7567 423.671 79.07V113.5H406.071V78.08C406.071 74.8533 405.118 72.2133 403.211 70.16C401.304 68.1067 398.738 67.08 395.511 67.08C392.211 67.08 389.534 68.1433 387.481 70.27C385.501 72.3233 384.511 75.0367 384.511 78.41V113.5H366.911ZM463.529 115.48C459.276 115.48 455.389 114.71 451.869 113.17C448.422 111.63 445.416 109.503 442.849 106.79C440.282 104.003 438.302 100.74 436.909 97C435.589 93.26 434.929 89.2267 434.929 84.9V82.37C434.929 78.0433 435.552 74.01 436.799 70.27C438.119 66.53 439.989 63.2667 442.409 60.48C444.902 57.62 447.872 55.42 451.319 53.88C454.766 52.2667 458.616 51.46 462.869 51.46C467.709 51.46 471.889 52.5233 475.409 54.65C478.929 56.7033 481.679 59.7833 483.659 63.89C485.639 67.9233 486.739 72.91 486.959 78.85L482.339 74.56V33.2H500.049V113.5H486.079V88.53H488.499C488.279 94.25 487.069 99.1267 484.869 103.16C482.742 107.193 479.846 110.273 476.179 112.4C472.512 114.453 468.296 115.48 463.529 115.48ZM467.929 100.74C470.642 100.74 473.099 100.153 475.299 98.98C477.572 97.7333 479.369 95.9367 480.689 93.59C482.082 91.2433 482.779 88.42 482.779 85.12V81.05C482.779 77.8233 482.082 75.11 480.689 72.91C479.296 70.71 477.462 69.0233 475.189 67.85C472.916 66.6767 470.459 66.09 467.819 66.09C464.886 66.09 462.246 66.86 459.899 68.4C457.626 69.8667 455.829 71.92 454.509 74.56C453.189 77.1267 452.529 80.1333 452.529 83.58C452.529 87.1 453.189 90.1433 454.509 92.71C455.829 95.2767 457.662 97.2567 460.009 98.65C462.356 100.043 464.996 100.74 467.929 100.74ZM552.423 113.5V95.68H549.453V76.32C549.453 73.24 548.719 70.93 547.253 69.39C545.786 67.85 543.439 67.08 540.213 67.08C538.599 67.08 536.473 67.1167 533.833 67.19C531.193 67.2633 528.479 67.3733 525.693 67.52C522.906 67.6667 520.376 67.8133 518.103 67.96V53.11C519.789 52.9633 521.769 52.8167 524.043 52.67C526.316 52.5233 528.663 52.4133 531.083 52.34C533.503 52.2667 535.776 52.23 537.903 52.23C544.063 52.23 549.233 53.11 553.413 54.87C557.666 56.63 560.893 59.3067 563.093 62.9C565.293 66.42 566.393 70.9667 566.393 76.54V113.5H552.423ZM533.173 115.04C528.846 115.04 525.033 114.27 521.733 112.73C518.506 111.19 515.976 108.99 514.143 106.13C512.309 103.197 511.393 99.7133 511.393 95.68C511.393 91.28 512.529 87.6867 514.803 84.9C517.076 82.04 520.266 79.95 524.373 78.63C528.479 77.2367 533.209 76.54 538.563 76.54H551.433V86.33H538.453C535.373 86.33 532.989 87.1 531.303 88.64C529.689 90.1067 528.883 92.1233 528.883 94.69C528.883 97.11 529.689 99.09 531.303 100.63C532.989 102.097 535.373 102.83 538.453 102.83C540.433 102.83 542.193 102.5 543.733 101.84C545.346 101.107 546.666 99.8967 547.693 98.21C548.719 96.5233 549.306 94.1767 549.453 91.17L553.633 95.57C553.266 99.75 552.239 103.27 550.553 106.13C548.939 108.99 546.666 111.19 543.733 112.73C540.873 114.27 537.353 115.04 533.173 115.04ZM582.095 113.5V33.2H599.805V113.5H582.095ZM574.945 46.18V33.2H599.805V46.18H574.945ZM636.372 115.37C629.406 115.37 624.052 113.133 620.312 108.66C616.572 104.113 614.702 97.2933 614.702 88.2V53.22H632.302V89.08C632.302 92.3067 633.219 94.8733 635.052 96.78C636.886 98.6867 639.342 99.64 642.422 99.64C645.576 99.64 648.142 98.65 650.122 96.67C652.102 94.69 653.092 92.0133 653.092 88.64V53.22H670.692V113.5H656.722V88.09H657.932C657.932 94.1767 657.126 99.2733 655.512 103.38C653.972 107.413 651.662 110.42 648.582 112.4C645.502 114.38 641.689 115.37 637.142 115.37H636.372ZM686.921 113.5V53.22H700.891V79.18H699.901C699.901 73.02 700.671 67.8867 702.211 63.78C703.751 59.6733 706.061 56.5933 709.141 54.54C712.221 52.4133 715.998 51.35 720.471 51.35H721.241C725.788 51.35 729.564 52.4133 732.571 54.54C735.651 56.5933 737.961 59.6733 739.501 63.78C741.114 67.8867 741.921 73.02 741.921 79.18H737.631C737.631 73.02 738.401 67.8867 739.941 63.78C741.554 59.6733 743.901 56.5933 746.981 54.54C750.061 52.4133 753.838 51.35 758.311 51.35H759.081C763.628 51.35 767.441 52.4133 770.521 54.54C773.674 56.5933 776.058 59.6733 777.671 63.78C779.284 67.8867 780.091 73.02 780.091 79.18V113.5H762.491V78.19C762.491 74.89 761.611 72.2133 759.851 70.16C758.164 68.1067 755.744 67.08 752.591 67.08C749.438 67.08 746.944 68.1433 745.111 70.27C743.278 72.3233 742.361 75.0733 742.361 78.52V113.5H724.651V78.19C724.651 74.89 723.771 72.2133 722.011 70.16C720.324 68.1067 717.941 67.08 714.861 67.08C711.634 67.08 709.104 68.1433 707.271 70.27C705.438 72.3233 704.521 75.0733 704.521 78.52V113.5H686.921ZM822.705 115.59C817.571 115.59 813.025 114.71 809.065 112.95C805.178 111.19 801.915 108.843 799.275 105.91C796.708 102.903 794.728 99.5667 793.335 95.9C792.015 92.16 791.355 88.3467 791.355 84.46V82.26C791.355 78.2267 792.015 74.3767 793.335 70.71C794.728 66.97 796.708 63.6333 799.275 60.7C801.841 57.7667 805.031 55.4567 808.845 53.77C812.731 52.01 817.131 51.13 822.045 51.13C828.498 51.13 833.925 52.5967 838.325 55.53C842.798 58.39 846.208 62.1667 848.555 66.86C850.901 71.48 852.075 76.54 852.075 82.04V87.98H798.725V77.97H841.405L835.685 82.59C835.685 78.9967 835.171 75.9167 834.145 73.35C833.118 70.7833 831.578 68.84 829.525 67.52C827.545 66.1267 825.051 65.43 822.045 65.43C818.965 65.43 816.361 66.1267 814.235 67.52C812.108 68.9133 810.495 70.9667 809.395 73.68C808.295 76.32 807.745 79.5833 807.745 83.47C807.745 87.0633 808.258 90.2167 809.285 92.93C810.311 95.57 811.925 97.6233 814.125 99.09C816.325 100.557 819.185 101.29 822.705 101.29C825.931 101.29 828.571 100.667 830.625 99.42C832.678 98.1733 834.071 96.6333 834.805 94.8H850.975C850.095 98.8333 848.371 102.427 845.805 105.58C843.238 108.733 840.011 111.19 836.125 112.95C832.238 114.71 827.765 115.59 822.705 115.59Z" fill="#0E120F"/>
<path d="M624.375 20.5799C629.114 20.5799 632.955 16.7385 632.955 11.9999C632.955 7.26132 629.114 3.41992 624.375 3.41992C619.637 3.41992 615.795 7.26132 615.795 11.9999C615.795 16.7385 619.637 20.5799 624.375 20.5799Z" fill="#3F8C54"/>
<defs>
<linearGradient id="paint0_linear_57_7" x1="6.00024" y1="138" x2="117.089" y2="-11.3954" gradientUnits="userSpaceOnUse">
<stop stop-color="#3F8C54" stop-opacity="0"/>
<stop offset="1" stop-color="#3F8C54"/>
</linearGradient>
</defs>
</svg>
