<svg width="625" height="83" viewBox="0 0 625 83" fill="none" xmlns="http://www.w3.org/2000/svg">
<path d="M18.04 80.2998L-2.43485e-05 20.0198H18.15L35.09 80.2998H18.04ZM23.54 80.2998V65.6698H41.25V80.2998H23.54ZM30.03 80.2998L44.66 20.0198H61.6L45.98 80.2998H30.03ZM98.2283 82.3898C93.0949 82.3898 88.5483 81.5098 84.5883 79.7498C80.7016 77.9898 77.4383 75.6431 74.7983 72.7098C72.2316 69.7031 70.2516 66.3665 68.8583 62.6998C67.5383 58.9598 66.8783 55.1465 66.8783 51.2598V49.0598C66.8783 45.0265 67.5383 41.1765 68.8583 37.5098C70.2516 33.7698 72.2316 30.4331 74.7983 27.4998C77.3649 24.5665 80.5549 22.2565 84.3683 20.5698C88.2549 18.8098 92.6549 17.9298 97.5683 17.9298C104.022 17.9298 109.448 19.3965 113.848 22.3298C118.322 25.1898 121.732 28.9665 124.078 33.6598C126.425 38.2798 127.598 43.3398 127.598 48.8398V54.7798H74.2483V44.7698H116.928L111.208 49.3898C111.208 45.7965 110.695 42.7165 109.668 40.1498C108.642 37.5831 107.102 35.6398 105.048 34.3198C103.068 32.9265 100.575 32.2298 97.5683 32.2298C94.4883 32.2298 91.8849 32.9265 89.7583 34.3198C87.6316 35.7131 86.0183 37.7665 84.9183 40.4798C83.8183 43.1198 83.2683 46.3831 83.2683 50.2698C83.2683 53.8631 83.7816 57.0165 84.8083 59.7298C85.8349 62.3698 87.4483 64.4231 89.6483 65.8898C91.8483 67.3565 94.7083 68.0898 98.2283 68.0898C101.455 68.0898 104.095 67.4665 106.148 66.2198C108.202 64.9731 109.595 63.4331 110.328 61.5998H126.498C125.618 65.6331 123.895 69.2265 121.328 72.3798C118.762 75.5331 115.535 77.9898 111.648 79.7498C107.762 81.5098 103.288 82.3898 98.2283 82.3898ZM139.261 80.2998V20.0198H153.231V45.8698H152.241C152.241 39.7098 153.011 34.5765 154.551 30.4698C156.164 26.3631 158.584 23.2831 161.811 21.2298C165.038 19.1765 168.961 18.1498 173.581 18.1498H174.351C181.391 18.1498 186.744 20.4598 190.411 25.0798C194.151 29.6265 196.021 36.5565 196.021 45.8698V80.2998H178.421V44.8798C178.421 41.6531 177.468 39.0131 175.561 36.9598C173.654 34.9065 171.088 33.8798 167.861 33.8798C164.561 33.8798 161.884 34.9431 159.831 37.0698C157.851 39.1231 156.861 41.8365 156.861 45.2098V80.2998H139.261ZM235.879 82.2798C231.625 82.2798 227.739 81.5098 224.219 79.9698C220.772 78.4298 217.765 76.3031 215.199 73.5898C212.632 70.8031 210.652 67.5398 209.259 63.7998C207.939 60.0598 207.279 56.0265 207.279 51.6998V49.1698C207.279 44.8431 207.902 40.8098 209.149 37.0698C210.469 33.3298 212.339 30.0665 214.759 27.2798C217.252 24.4198 220.222 22.2198 223.669 20.6798C227.115 19.0665 230.965 18.2598 235.219 18.2598C240.059 18.2598 244.239 19.3231 247.759 21.4498C251.279 23.5031 254.029 26.5831 256.009 30.6898C257.989 34.7231 259.089 39.7098 259.309 45.6498L254.689 41.3598V-0.000197411H272.399V80.2998H258.429V55.3298H260.849C260.629 61.0498 259.419 65.9265 257.219 69.9598C255.092 73.9931 252.195 77.0731 248.529 79.1998C244.862 81.2531 240.645 82.2798 235.879 82.2798ZM240.279 67.5398C242.992 67.5398 245.449 66.9531 247.649 65.7798C249.922 64.5331 251.719 62.7365 253.039 60.3898C254.432 58.0431 255.129 55.2198 255.129 51.9198V47.8498C255.129 44.6231 254.432 41.9098 253.039 39.7098C251.645 37.5098 249.812 35.8231 247.539 34.6498C245.265 33.4765 242.809 32.8898 240.169 32.8898C237.235 32.8898 234.595 33.6598 232.249 35.1998C229.975 36.6665 228.179 38.7198 226.859 41.3598C225.539 43.9265 224.879 46.9331 224.879 50.3798C224.879 53.8998 225.539 56.9431 226.859 59.5098C228.179 62.0765 230.012 64.0565 232.359 65.4498C234.705 66.8431 237.345 67.5398 240.279 67.5398ZM324.772 80.2998V62.4798H321.802V43.1198C321.802 40.0398 321.069 37.7298 319.602 36.1898C318.136 34.6498 315.789 33.8798 312.562 33.8798C310.949 33.8798 308.822 33.9165 306.182 33.9898C303.542 34.0631 300.829 34.1731 298.042 34.3198C295.256 34.4665 292.726 34.6131 290.452 34.7598V19.9098C292.139 19.7631 294.119 19.6165 296.392 19.4698C298.666 19.3231 301.012 19.2131 303.432 19.1398C305.852 19.0665 308.126 19.0298 310.252 19.0298C316.412 19.0298 321.582 19.9098 325.762 21.6698C330.016 23.4298 333.242 26.1065 335.442 29.6998C337.642 33.2198 338.742 37.7665 338.742 43.3398V80.2998H324.772ZM305.522 81.8398C301.196 81.8398 297.382 81.0698 294.082 79.5298C290.856 77.9898 288.326 75.7898 286.492 72.9298C284.659 69.9965 283.742 66.5131 283.742 62.4798C283.742 58.0798 284.879 54.4865 287.152 51.6998C289.426 48.8398 292.616 46.7498 296.722 45.4298C300.829 44.0365 305.559 43.3398 310.912 43.3398H323.782V53.1298H310.802C307.722 53.1298 305.339 53.8998 303.652 55.4398C302.039 56.9065 301.232 58.9231 301.232 61.4898C301.232 63.9098 302.039 65.8898 303.652 67.4298C305.339 68.8965 307.722 69.6298 310.802 69.6298C312.782 69.6298 314.542 69.2998 316.082 68.6398C317.696 67.9065 319.016 66.6965 320.042 65.0098C321.069 63.3231 321.656 60.9765 321.802 57.9698L325.982 62.3698C325.616 66.5498 324.589 70.0698 322.902 72.9298C321.289 75.7898 319.016 77.9898 316.082 79.5298C313.222 81.0698 309.702 81.8398 305.522 81.8398ZM354.445 80.2998V-0.000197411H372.155V80.2998H354.445ZM347.295 12.9798V-0.000197411H372.155V12.9798H347.295ZM408.722 82.1698C401.755 82.1698 396.402 79.9331 392.662 75.4598C388.922 70.9131 387.052 64.0931 387.052 54.9998V20.0198H404.652V55.8798C404.652 59.1065 405.569 61.6731 407.402 63.5798C409.235 65.4865 411.692 66.4398 414.772 66.4398C417.925 66.4398 420.492 65.4498 422.472 63.4698C424.452 61.4898 425.442 58.8131 425.442 55.4398V20.0198H443.042V80.2998H429.072V54.8898H430.282C430.282 60.9765 429.475 66.0731 427.862 70.1798C426.322 74.2131 424.012 77.2198 420.932 79.1998C417.852 81.1798 414.039 82.1698 409.492 82.1698H408.722ZM459.271 80.2998V20.0198H473.241V45.9798H472.251C472.251 39.8198 473.021 34.6865 474.561 30.5798C476.101 26.4731 478.411 23.3931 481.491 21.3398C484.571 19.2131 488.347 18.1498 492.821 18.1498H493.591C498.137 18.1498 501.914 19.2131 504.921 21.3398C508.001 23.3931 510.311 26.4731 511.851 30.5798C513.464 34.6865 514.271 39.8198 514.271 45.9798H509.981C509.981 39.8198 510.751 34.6865 512.291 30.5798C513.904 26.4731 516.251 23.3931 519.331 21.3398C522.411 19.2131 526.187 18.1498 530.661 18.1498H531.431C535.977 18.1498 539.791 19.2131 542.871 21.3398C546.024 23.3931 548.407 26.4731 550.021 30.5798C551.634 34.6865 552.441 39.8198 552.441 45.9798V80.2998H534.841V44.9898C534.841 41.6898 533.961 39.0131 532.201 36.9598C530.514 34.9065 528.094 33.8798 524.941 33.8798C521.787 33.8798 519.294 34.9431 517.461 37.0698C515.627 39.1231 514.711 41.8731 514.711 45.3198V80.2998H497.001V44.9898C497.001 41.6898 496.121 39.0131 494.361 36.9598C492.674 34.9065 490.291 33.8798 487.211 33.8798C483.984 33.8798 481.454 34.9431 479.621 37.0698C477.787 39.1231 476.871 41.8731 476.871 45.3198V80.2998H459.271ZM595.054 82.3898C589.921 82.3898 585.374 81.5098 581.414 79.7498C577.528 77.9898 574.264 75.6431 571.624 72.7098C569.058 69.7031 567.078 66.3665 565.684 62.6998C564.364 58.9598 563.704 55.1465 563.704 51.2598V49.0598C563.704 45.0265 564.364 41.1765 565.684 37.5098C567.078 33.7698 569.058 30.4331 571.624 27.4998C574.191 24.5665 577.381 22.2565 581.194 20.5698C585.081 18.8098 589.481 17.9298 594.394 17.9298C600.848 17.9298 606.274 19.3965 610.674 22.3298C615.148 25.1898 618.558 28.9665 620.904 33.6598C623.251 38.2798 624.424 43.3398 624.424 48.8398V54.7798H571.074V44.7698H613.754L608.034 49.3898C608.034 45.7965 607.521 42.7165 606.494 40.1498C605.468 37.5831 603.928 35.6398 601.874 34.3198C599.894 32.9265 597.401 32.2298 594.394 32.2298C591.314 32.2298 588.711 32.9265 586.584 34.3198C584.458 35.7131 582.844 37.7665 581.744 40.4798C580.644 43.1198 580.094 46.3831 580.094 50.2698C580.094 53.8631 580.608 57.0165 581.634 59.7298C582.661 62.3698 584.274 64.4231 586.474 65.8898C588.674 67.3565 591.534 68.0898 595.054 68.0898C598.281 68.0898 600.921 67.4665 602.974 66.2198C605.028 64.9731 606.421 63.4331 607.154 61.5998H623.324C622.444 65.6331 620.721 69.2265 618.154 72.3798C615.588 75.5331 612.361 77.9898 608.474 79.7498C604.588 81.5098 600.114 82.3898 595.054 82.3898Z" fill="#0E120F"/>
</svg>
