<svg width="600" height="600" viewBox="0 0 600 600" fill="none" xmlns="http://www.w3.org/2000/svg">
<g clip-path="url(#clip0_1_62)">
<path d="M458.741 0H140.431C62.8731 0 0 62.8731 0 140.431V458.741C0 536.299 62.8731 599.172 140.431 599.172H458.741C536.299 599.172 599.172 536.299 599.172 458.741V140.431C599.172 62.8731 536.299 0 458.741 0Z" fill="#1A4A2F"/>
<path d="M127.024 429.007C213.305 423.255 278.016 380.115 321.156 299.586C364.297 219.057 411.751 178.793 463.52 178.793" stroke="url(#paint0_linear_1_62)" stroke-width="44.2368" stroke-linecap="round"/>
<path d="M221.933 403.123C226.698 403.123 230.561 399.26 230.561 394.495C230.561 389.73 226.698 385.867 221.933 385.867C217.168 385.867 213.305 389.73 213.305 394.495C213.305 399.26 217.168 403.123 221.933 403.123Z" fill="#7CC28A" fill-opacity="0.4"/>
<path d="M299.586 344.884C305.543 344.884 310.371 340.055 310.371 334.099C310.371 328.142 305.543 323.313 299.586 323.313C293.63 323.313 288.801 328.142 288.801 334.099C288.801 340.055 293.63 344.884 299.586 344.884Z" fill="#7CC28A" fill-opacity="0.6"/>
<path d="M463.52 226.248C489.728 226.248 510.974 205.002 510.974 178.793C510.974 152.585 489.728 131.339 463.52 131.339C437.311 131.339 416.065 152.585 416.065 178.793C416.065 205.002 437.311 226.248 463.52 226.248Z" fill="#D8F56B" fill-opacity="0.35"/>
<path d="M463.519 204.678C477.815 204.678 489.404 193.089 489.404 178.793C489.404 164.498 477.815 152.909 463.519 152.909C449.224 152.909 437.635 164.498 437.635 178.793C437.635 193.089 449.224 204.678 463.519 204.678Z" fill="#7CC28A"/>
<path d="M463.52 191.736C470.667 191.736 476.462 185.941 476.462 178.794C476.462 171.646 470.667 165.852 463.52 165.852C456.372 165.852 450.577 171.646 450.577 178.794C450.577 185.941 456.372 191.736 463.52 191.736Z" fill="#D8F56B"/>
</g>
<defs>
<linearGradient id="paint0_linear_1_62" x1="127.024" y1="429.007" x2="366.645" y2="106.758" gradientUnits="userSpaceOnUse">
<stop stop-color="#9BD4A5" stop-opacity="0"/>
<stop offset="1" stop-color="#9BD4A5"/>
</linearGradient>
<clipPath id="clip0_1_62">
<rect width="599.172" height="599.172" fill="white"/>
</clipPath>
</defs>
</svg>
